<svg id="Capa_1" enable-background="new 0 0 512 512" height="512" viewBox="0 0 512 512" width="512" xmlns="http://www.w3.org/2000/svg"><g><path d="m422.167 207.809c-5.523 0-10 4.478-10 10v193.954c0 1.865-.282 3.678-.827 5.395l-141.27-120.185 115.331-109.076c4.013-3.795 4.189-10.124.394-14.137-3.794-4.013-10.123-4.19-14.136-.395l-148.941 140.863h-13.269l-174.152-164.707c.796-.109 1.605-.164 2.422-.164h317.664c5.523 0 10-4.478 10-10s-4.477-10-10-10h-317.665c-9.91 0-19.271 3.816-26.364 10.748-7.321 7.162-11.354 16.745-11.354 26.986v244.672c0 10.387 4.343 20.412 11.913 27.513.032.031.065.061.097.091 7.006 6.532 16.133 10.129 25.708 10.129h356.73c9.594 0 18.738-3.611 25.744-10.163.016-.015.032-.031.048-.046 7.579-7.104 11.926-17.133 11.926-27.524v-193.954c.001-5.523-4.476-10-9.999-10zm-402.167 203.954v-244.672c0-1.389.158-2.751.465-4.068l141.633 133.951-141.272 120.184c-.544-1.717-.826-3.531-.826-5.395zm17.718 17.733c-.174 0-.348-.003-.522-.008l139.516-118.692 21.885 20.698c1.856 1.756 4.315 2.734 6.871 2.734h21.229c2.556 0 5.015-.979 6.871-2.734l21.885-20.698 139.498 118.676c-.168.005-.334.024-.503.024z" fill="#020288"/><g><g><ellipse cx="422.167" cy="152.384" fill="#ffbdbc" rx="89.833" ry="89.88"/></g><g><path d="m425.564 190.632c-5.523 0-10-4.477-10-10v-40.495h-.793c-5.523 0-10-4.477-10-10 0-5.522 4.477-10 10-10h10.793c5.523 0 10 4.478 10 10v50.495c0 5.522-4.478 10-10 10z" fill="#020288"/></g></g></g></svg>